<?xml version="1.0" encoding="utf-8"?>
<!-- Generator: Adobe Illustrator 26.5.0, SVG Export Plug-In . SVG Version: 6.00 Build 0)  -->
<svg version="1.1" id="Layer_1" xmlns="http://www.w3.org/2000/svg" xmlns:xlink="http://www.w3.org/1999/xlink" x="0px" y="0px"
	 viewBox="0 0 300 300" style="enable-background:new 0 0 300 300;" xml:space="preserve">
<style type="text/css">
	.st0{fill:#A72C32;}
	.st1{fill:#231F20;}
</style>
<g>
	<g>
		<path class="st0" d="M110.18,160.99c6.5,4.88,13.82-2.03,14.83-14.02C120.74,153.06,115.66,157.33,110.18,160.99z"/>
		<path class="st0" d="M184.95,169.52c2.03,0,4.27-0.81,5.49-2.24c-5.69-2.64-8.74-4.27-10.16-5.28c0.81,2.23,1.02,4.27,0.61,6.5
			C182.1,169.11,183.52,169.52,184.95,169.52z"/>
		<path class="st0" d="M189.82,160.99c-5.49-3.66-10.57-7.92-14.83-14.02C176.01,158.95,183.32,165.86,189.82,160.99z"/>
		<path class="st0" d="M167.07,118.52c-3.86,0-3.45,3.86-3.45,3.45c0,5.28,2.03,11.18,2.03,14.22c0,1.42,0,3.05-0.2,5.08
			c2.44,2.44,7.11,9.35,7.52,14.02c0,0.61-0.61,2.84-1.02,3.25c0.61-0.2,1.22,0,1.63,0.2l0.2-3.25c2.23,4.06,2.44,5.08,3.86,7.31
			l1.42-0.61c-3.05-4.06-5.28-10.16-6.09-17.88c-1.42-3.45-2.03-3.66-2.03-4.27c0-0.2,1.63-6.91,1.63-10.77
			C172.55,125.84,172.35,118.52,167.07,118.52z"/>
		<path class="st0" d="M87.42,83.37c-10.36,32.31-15.85,44.7-24.99,54.25c-9.35,9.75-10.16,9.14-17.27,13.61
			c2.44,0,2.44-0.2,2.84-0.41c20.72-9.96,33.52-38.4,37.79-55.67c3.05-12.39,7.72-29.46,20.32-30.68l-0.81-2.64
			C92.5,64.07,88.84,78.9,87.42,83.37z"/>
		<path class="st0" d="M109.57,167.28c1.22,1.42,3.45,2.24,5.49,2.24c1.42,0,2.84-0.41,4.06-1.02c-0.41-2.23-0.2-4.27,0.61-6.5
			C118.3,163.02,115.26,164.64,109.57,167.28z"/>
		<path class="st0" d="M167.5,173.39c-0.4-0.31-0.91-0.52-1.53-0.6c-0.63-0.08-1.37-0.05-2.25,0.14c0,0-0.15,0.04-0.38,0.09
			c-0.23,0.06-0.54,0.13-0.88,0.22c-0.34,0.08-0.69,0.17-1.01,0.24c-0.32,0.07-0.59,0.14-0.77,0.17c-0.22,0.05-0.48,0.1-0.75,0.15
			c-0.27,0.05-0.55,0.1-0.81,0.15c-0.26,0.05-0.5,0.09-0.68,0.12c-0.19,0.03-0.32,0.06-0.38,0.07l-0.16,1.29l0.09,0.1
			c0,0,0.03-0.01,0.08-0.02c0.05-0.01,0.12-0.03,0.19-0.06c0.08-0.02,0.16-0.05,0.25-0.07c0.09-0.02,0.17-0.04,0.24-0.06
			c0.15-0.03,0.28-0.04,0.38-0.02c0.1,0.02,0.18,0.07,0.24,0.16c0.06,0.09,0.1,0.21,0.13,0.38c0.03,0.17,0.04,0.37,0.04,0.63
			l0.07,9.71c0,0.34-0.01,0.62-0.06,0.86c-0.05,0.24-0.13,0.44-0.24,0.62c-0.12,0.17-0.27,0.32-0.48,0.46
			c-0.21,0.14-0.46,0.26-0.77,0.4l-0.14,1.34c0.01-0.01,0.16-0.07,0.39-0.14c0.24-0.07,0.56-0.17,0.91-0.28
			c0.36-0.1,0.75-0.22,1.12-0.32c0.37-0.1,0.73-0.19,1.02-0.26c0.19-0.05,0.43-0.1,0.69-0.15c0.25-0.05,0.52-0.11,0.76-0.16
			c0.24-0.05,0.46-0.09,0.61-0.12c0.16-0.03,0.25-0.04,0.25-0.04l0.19-1.32l-0.04-0.11c0,0-0.04,0.01-0.11,0.04
			c-0.07,0.02-0.17,0.05-0.28,0.09c-0.11,0.03-0.23,0.07-0.36,0.11c-0.12,0.04-0.24,0.07-0.35,0.09c-0.21,0.05-0.38,0.07-0.51,0.04
			c-0.13-0.03-0.23-0.11-0.3-0.25c-0.07-0.15-0.11-0.36-0.14-0.66c-0.03-0.3-0.04-0.69-0.04-1.18l0.01-2.1l1.86-0.42
			c0.66-0.15,1.31-0.45,1.91-0.86c0.6-0.41,1.14-0.93,1.6-1.52c0.46-0.59,0.84-1.25,1.11-1.93c0.26-0.68,0.41-1.39,0.41-2.08
			c0-0.64-0.09-1.22-0.28-1.72C168.19,174.11,167.9,173.7,167.5,173.39z M166.16,178.62c-0.1,0.42-0.24,0.8-0.44,1.14
			c-0.19,0.34-0.44,0.63-0.73,0.88c-0.29,0.25-0.64,0.46-1.03,0.63l-2.17,0.14c0.01-0.49,0.02-0.99,0.03-1.51
			c0.01-0.52,0.03-1.04,0.04-1.57c0.02-0.53,0.04-1.05,0.06-1.57c0.02-0.52,0.05-1.04,0.08-1.53c0.01-0.09,0.01-0.16,0.03-0.22
			c0.01-0.06,0.04-0.1,0.07-0.13c0.04-0.03,0.09-0.06,0.16-0.08c0.07-0.02,0.17-0.04,0.29-0.07c0.64-0.13,1.2-0.19,1.67-0.15
			c0.47,0.03,0.86,0.15,1.16,0.36c0.31,0.21,0.53,0.5,0.68,0.88c0.15,0.38,0.22,0.86,0.22,1.43
			C166.3,177.74,166.26,178.2,166.16,178.62z"/>
		<path class="st0" d="M236.55,147.58c4.06,2.24,8.13,3.25,13.41,3.66c-15.44-7.72-31.9-32.71-37.18-55.87
			c-4.67-20.52-11.17-29.66-19.5-29.66c-12.6,0-7.72,19.1-22.96,22.55v-1.22c12.8-2.84,10.16-18.9,19.51-21.94
			c0-0.41-3.45-1.83-4.47-1.83c-2.64,2.03-4.47,4.27-5.89,7.11c-2.23,4.88-4.27,12.8-10.16,12.8c-6.1,0-9.96-13.82-5.89-21.13
			c-0.81,5.49,0.2,8.94,2.64,8.94c0-4.88,1.63-7.31,5.08-7.72h3.25c5.49,0,6.71-2.03,9.75-2.03c2.85,0,5.69,1.63,6.1,1.83
			c0-1.63-1.63-3.05-6.3-5.69c6.5,2.03,7.92,3.45,7.32,7.92c0.81-0.81,1.83-3.45,1.83-4.88c0-2.24-1.83-4.47-3.86-5.28
			c-1.83-0.81,0.2-8.53-7.31-9.55c-8.33-1.02-14.63-1.63-19.51-4.06c0,1.42,1.02,2.64,4.67,5.08l0.2,0.2c0,0.41-0.2,1.42-0.41,2.44
			c2.03,0.41,3.86,0.41,5.89,0.2c0,1.42,0.2,2.64,0.61,3.05c2.84-2.03,4.88-2.84,6.7-2.84c3.05,0,5.28,2.03,5.49,4.88l-0.41,0.2
			c-0.2-0.61-0.41-1.22-1.02-1.22c-1.02,0-2.23,1.22-4.27,1.22c-1.62,0-2.64-0.81-3.05-2.84c-0.81,0.2-1.83,0.81-3.05,1.42h-0.2
			c-1.22-0.2-1.42-2.24-1.63-3.05c-1.83,0.2-4.27,0.2-6.3,0l1.02-3.05c-0.41-0.41-0.41-0.41-0.61-0.41
			c-5.08,1.83-10.56,2.64-16.05,2.64c-5.49,0-10.97-0.81-16.05-2.64c-0.2,0-0.2,0-0.61,0.41l1.02,3.05c-2.03,0.2-4.47,0.2-6.3,0
			c-0.2,0.81-0.41,2.84-1.62,3.05h-0.2c-1.22-0.61-2.24-1.22-3.05-1.42c-0.41,2.03-1.42,2.84-3.05,2.84c-2.03,0-3.25-1.22-4.27-1.22
			c-0.61,0-0.81,0.61-1.02,1.22l-0.41-0.2c0.2-2.84,2.44-4.88,5.49-4.88c1.83,0,3.86,0.81,6.71,2.84c0.41-0.41,0.61-1.63,0.61-3.05
			c2.03,0.2,3.86,0.2,5.89-0.2c-0.2-1.02-0.41-2.03-0.41-2.44l0.2-0.2c3.66-2.44,4.67-3.66,4.67-5.08
			c-4.88,2.44-11.17,3.05-19.5,4.06c-7.52,1.02-5.49,8.74-7.31,9.55c-2.03,0.81-3.86,3.05-3.86,5.28c0,1.42,1.02,4.06,1.83,4.88
			c-0.61-4.47,0.81-5.89,7.31-7.92c-4.67,2.64-6.3,4.06-6.3,5.69c0.41-0.2,3.25-1.83,6.09-1.83c3.05,0,4.27,2.03,9.75,2.03h3.25
			c3.45,0.41,5.08,2.84,5.08,7.72c2.44,0,3.45-3.45,2.64-8.94c4.06,7.31,0.2,21.13-5.89,21.13c-5.89,0-7.92-7.92-10.16-12.8
			c-1.42-2.84-3.25-5.08-5.89-7.11c-1.02,0-4.47,1.42-4.47,1.83c9.35,3.05,6.7,19.1,19.5,21.94v1.22
			c-15.24-3.45-10.36-22.55-22.96-22.55c-8.33,0-14.83,9.14-19.5,29.66c-5.28,23.16-21.74,48.15-37.18,55.87
			c5.28-0.41,9.35-1.42,13.41-3.66c9.14-3.86,20.32-20.72,27.43-40.03c-0.2,3.45-5.08,14.43-11.38,26.21
			c1.02,1.42,3.45,3.86,3.86,3.86c0.41,0,3.45-4.67,6.91-11.18c3.45-6.5,9.75-22.35,10.36-23.57c-0.61,4.06-4.27,14.22-8.53,23.77
			c0.61,1.22,2.03,3.45,3.25,3.45c2.24,0,9.35-19.1,14.22-30.88c-1.83,7.31-5.49,17.47-8.33,24.38c1.02,1.83,2.64,3.45,3.25,3.45
			c5.28-11.58,10.36-23.57,11.38-27.02c-1.83,6.3-5.08,17.68-6.5,22.15c1.22,2.03,2.44,3.45,3.05,3.45c0.2,0,1.02-1.63,1.42-2.64
			c3.05-7.52,5.49-18.9,6.91-21.33c-1.02,5.49-3.05,14.63-4.67,20.11c1.22,1.83,1.63,3.45,2.44,3.45c0.61,0,3.25-5.89,5.89-10.97
			v-0.2c-0.61-2.84-0.81-5.89-0.81-8.94c0-4.06,0.61-7.31,1.63-8.53h0.2c-1.83,7.92-0.61,15.44,3.05,22.55
			c5.49-4.88,10.57,0.61,8.74,6.1c2.24,10.36,6.5,18.08,12.8,23.16c6.3-5.08,10.57-12.8,12.8-23.16c-1.83-5.49,3.25-10.97,8.74-6.1
			c3.66-7.11,4.88-14.63,3.05-22.55h0.2c1.02,1.22,1.63,4.47,1.63,8.53c0,3.05-0.2,6.1-0.81,8.94v0.2
			c2.64,5.08,5.28,10.97,5.89,10.97c0.81,0,1.22-1.63,2.44-3.45c-1.62-5.49-3.66-14.63-4.67-20.11c1.42,2.44,3.86,13.82,6.91,21.33
			c0.41,1.02,1.22,2.64,1.42,2.64c0.61,0,1.83-1.42,3.05-3.45c-1.42-4.47-4.67-15.85-6.5-22.15c1.02,3.45,6.1,15.44,11.38,27.02
			c0.61,0,2.24-1.63,3.25-3.45c-2.85-6.91-6.5-17.07-8.33-24.38c4.88,11.78,11.99,30.88,14.22,30.88c1.22,0,2.64-2.24,3.25-3.45
			c-4.27-9.55-7.92-19.71-8.53-23.77c0.61,1.22,6.91,17.07,10.36,23.57c3.45,6.5,6.5,11.18,6.91,11.18c0.41,0,2.85-2.44,3.86-3.86
			c-6.3-11.78-11.18-22.76-11.38-26.21C216.24,126.85,227.41,143.72,236.55,147.58z M78.28,127.06c-3.66,6.3-6.91,10.36-11.78,15.44
			c0-0.2,0.2-0.41,0.2-0.41c4.47-5.28,8.33-10.97,11.58-16.86c5.89-11.38,6.5-12.8,6.71-13.21
			C83.15,117.3,80.92,122.18,78.28,127.06z M121.76,85.4c-1.63,0.81-3.05,1.42-4.47,1.63c-1.22,0-2.84-3.66-3.25-5.08
			c0.41,0,0.81-0.2,1.02-0.2c0.41,2.03,1.22,3.86,2.03,5.08l0.2,0.2v-0.2c1.22-0.41,2.44-1.02,3.66-2.03L121.76,85.4z M117.69,79.1
			c-1.83,1.22-3.45,1.83-5.28,2.23c-2.44-2.23-3.45-5.28-3.86-7.52c0.61,0,1.02-0.2,1.42-0.2c0.2,2.23,0.81,5.28,2.23,7.31l0.41,0.2
			c1.42-0.61,3.05-1.63,4.67-3.05C117.29,78.29,117.49,78.7,117.69,79.1z M110.38,80.93c-1.63,1.22-3.05,1.83-5.28,2.24
			c-1.42-1.22-2.44-3.25-3.25-5.08l1.22-0.41c0.41,2.24,1.22,4.06,2.03,5.28c1.42-0.61,3.05-1.42,4.67-3.05L110.38,80.93z
			 M106.32,66.91c0.41,2.44,1.02,4.27,2.03,5.69h0.2c1.42-0.41,2.84-1.42,4.27-2.64l0.61,0.81c-1.63,1.02-3.25,1.83-5.08,2.03
			c-1.42-1.42-2.64-3.45-3.25-5.69C105.5,66.91,105.91,66.91,106.32,66.91z M106.72,72.4c0.2,0.41,0.41,0.81,0.81,1.02
			c-1.62,1.63-4.06,3.25-7.11,3.86C102.86,76.46,105.1,74.23,106.72,72.4z M98.19,71.38c0.41,2.44,1.02,4.47,2.03,5.69v0.2
			c-1.22-1.22-2.23-2.84-3.05-4.67L98.19,71.38z M94.53,80.12c0.2,2.23,0.81,5.28,2.44,7.31v0.2l0.2-0.2
			c2.23-0.61,4.67-2.84,6.09-4.47l1.02,0.81c-1.63,1.63-4.27,3.45-7.31,3.86c-2.44-2.23-3.25-5.08-3.66-7.31
			C93.72,80.32,94.13,80.12,94.53,80.12z M95.14,87.44c0.41,0.41,0.61,0.81,1.02,1.02c-1.63,1.42-3.86,3.25-6.91,3.86L95.14,87.44z
			 M95.95,104.3c-2.23,8.33-6.5,20.52-11.78,27.02v-0.2c4.47-8.53,7.72-17.27,11.38-26.21l0.41-0.81V104.3z M92.7,100.64
			c-2.24-2.24-3.25-5.28-3.66-7.31l1.42-0.41c0.2,2.44,0.81,5.49,2.24,7.52h0.2c2.44-0.81,4.67-2.84,6.3-4.67l0.81,1.02
			C98.39,98.41,95.95,100.24,92.7,100.64z M96.36,122.99l4.88-11.99c1.22-3.66,3.05-7.72,4.27-12.19
			C105.1,105.11,100.83,116.08,96.36,122.99z M101.03,96.17c-2.44-2.24-3.45-5.28-3.86-7.52c0.41,0,1.02,0,1.42-0.2
			c0.2,2.23,0.81,5.28,2.24,7.31l0.2,0.2c2.44-0.81,4.67-3.05,6.3-4.67l0.81,1.02C106.52,93.73,104.08,95.56,101.03,96.17z
			 M108.96,91.5c-2.24-2.03-3.25-5.08-3.66-7.31l1.42-0.2c0.2,2.23,0.81,5.28,2.24,7.31l0.2,0.2v-0.2c2.44-0.61,4.67-2.84,6.3-4.47
			l0.81,1.02c-1.62,1.42-4.06,3.25-7.11,3.66H108.96z M109.57,111.41c-1.22,3.05-4.27,8.94-4.88,9.35c2.64-6.5,5.08-13,7.52-19.51
			h0.2C112.21,102.88,110.58,108.57,109.57,111.41z M111.8,120.96c1.63-5.69,3.45-11.17,5.69-16.66
			C116.48,110.19,114.85,115.68,111.8,120.96z M113.02,100.03c-2.44-2.24-3.25-5.28-3.66-7.31l1.22-0.41
			c0.2,2.24,0.81,5.28,2.44,7.31l0.2,0.2c2.44-0.81,4.67-3.05,6.09-4.67l1.02,1.02C118.71,97.59,116.27,99.63,113.02,100.03z
			 M118.51,120.76c1.22-3.86,2.23-7.52,3.86-10.97C121.96,113.65,120.95,117.51,118.51,120.76z M121.15,95.56
			c-2.23-2.23-3.25-5.28-3.66-7.52c0.41,0,0.81,0,1.42-0.2c0.2,2.24,0.81,5.28,2.23,7.31l0.2,0.2c0.81-0.41,1.83-0.81,2.64-1.42
			C123.99,95.16,122.37,95.36,121.15,95.56z M168.9,89.26l0.81,1.42c-1.42,2.44-3.25,4.06-5.28,5.08c-2.03-1.02-3.66-2.64-5.08-4.88
			c0.2-0.41,0.61-0.61,1.02-1.02c1.22,2.64,2.64,4.47,3.86,5.49h0.41C166.05,94.14,167.47,92.11,168.9,89.26z M150.61,82.97
			c0.41-0.2,0.81-0.61,1.42-0.81c1.02,2.64,2.64,6.1,5.08,8.13h0.2c2.44-2.03,4.06-5.49,5.08-8.13c0.61,0.2,1.02,0.61,1.42,0.81
			c-1.22,2.64-3.25,5.89-6.7,7.72C153.86,88.86,151.83,85.61,150.61,82.97z M155.08,90.89c-1.42,2.24-3.05,3.86-5.08,4.88
			c-2.03-1.02-3.66-2.64-5.08-4.88l1.02-1.02c1.22,2.64,2.64,4.47,4.06,5.49c1.42-1.02,2.85-2.84,4.06-5.49L155.08,90.89z
			 M150,81.75c-3.25-1.63-5.28-4.88-6.5-7.52c0.41-0.2,0.81-0.61,1.42-0.81c1.02,2.64,2.64,6.1,5.08,7.92
			c2.44-1.83,4.06-5.28,5.08-7.92c0.61,0.2,1.02,0.61,1.42,0.81C155.28,76.87,153.25,80.12,150,81.75z M147.97,82.15
			c0.61,0.2,1.02,0.61,1.42,0.81c-1.22,2.64-3.25,5.89-6.5,7.72c-3.45-1.83-5.49-5.08-6.7-7.72c0.41-0.2,0.81-0.61,1.42-0.81
			c1.02,2.64,2.64,6.1,5.08,8.13h0.2C145.33,88.25,146.95,84.79,147.97,82.15z M142.69,104.1l0.2,0.2v-0.2
			c2.44-1.83,4.06-5.28,5.08-8.13l1.42,1.02c-1.22,2.44-3.25,5.69-6.5,7.52c-3.45-1.83-5.49-5.08-6.7-7.52l1.42-1.02
			C138.62,98.81,140.25,102.27,142.69,104.1z M144.92,104.71c1.02,2.64,2.64,6.3,5.08,8.13c2.44-1.83,4.06-5.49,5.08-8.13l1.42,0.81
			c-1.02,2.64-3.25,5.89-6.5,7.72c-3.25-1.83-5.49-5.08-6.5-7.72L144.92,104.71z M150.61,96.98l1.42-1.02
			c1.02,2.84,2.64,6.3,5.08,8.13v0.2l0.2-0.2c2.44-1.83,4.06-5.28,5.08-8.13l1.42,1.02c-1.22,2.44-3.25,5.69-6.7,7.52
			C153.86,102.67,151.83,99.42,150.61,96.98z M164.22,81.34l0.41,0.2v0.2l-0.2,0.2c-3.25-1.83-5.49-5.08-6.5-7.72
			c0.41-0.2,0.81-0.61,1.42-0.81C160.36,76.06,161.99,79.51,164.22,81.34z M150,51.68c3.05,0,5.49-0.2,8.33-0.81
			c0.2,0-3.05,1.83-6.91,1.83c0,1.83,1.22,2.24,2.44,2.84c1.02,0,1.83-0.2,1.83-0.2c-3.45,1.02-4.88,5.89-5.69,9.55
			c-0.81-3.66-2.23-8.53-5.69-9.55c0,0,0.81,0.2,1.83,0.2c1.22-0.61,2.44-1.02,2.44-2.84c-3.86,0-7.11-1.83-6.91-1.83
			C144.51,51.47,146.95,51.68,150,51.68z M135.37,81.54l0.41-0.2c2.23-1.83,3.86-5.28,4.88-7.92c0.61,0.2,1.02,0.61,1.42,0.81
			c-1.02,2.64-3.25,5.89-6.5,7.72l-0.2-0.2V81.54z M131.1,89.26c1.42,2.84,2.84,4.88,4.27,6.1h0.41c1.22-1.02,2.64-2.84,3.86-5.49
			c0.41,0.41,0.81,0.61,1.02,1.02c-1.42,2.24-3.05,3.86-5.08,4.88c-2.03-1.02-3.86-2.64-5.28-5.08L131.1,89.26z M128.26,104.5
			l0.2-0.41c2.24-1.83,3.86-5.28,5.08-8.13l1.22,1.02C133.75,99.42,131.51,102.67,128.26,104.5z M135.57,113.24
			c-3.45-1.83-5.49-5.08-6.71-7.72c0.61-0.2,1.02-0.41,1.42-0.81c1.02,2.64,2.84,6.3,5.08,8.13h0.41c2.23-1.83,3.86-5.49,4.88-8.13
			l1.42,0.81C141.06,108.16,138.83,111.41,135.57,113.24z M139.03,127.87c-0.2-0.41-0.41-0.81-0.41-1.22
			c0.81-1.42,1.42-2.84,2.03-4.47c0.61,0.2,1.02,0.61,1.42,0.81C141.26,124.82,140.25,126.65,139.03,127.87z M136.18,114.26
			l1.42-0.81c1.02,2.64,2.64,6.3,5.08,8.13h0.2c2.44-1.83,4.06-5.49,5.08-8.13l1.42,0.81c-1.22,2.64-3.25,5.89-6.5,7.72
			C139.44,120.15,137.4,116.9,136.18,114.26z M143.7,138.84c-0.2,0-0.2-0.2-0.2-0.2c2.03-2.03,3.66-5.28,4.47-7.72l1.42,0.81
			C148.38,133.96,146.55,137.01,143.7,138.84z M156.3,138.84c-2.85-1.83-4.67-4.88-5.69-7.11l1.42-0.81
			c0.81,2.44,2.44,5.69,4.47,7.72C156.5,138.64,156.5,138.84,156.3,138.84z M150,130.71c-3.25-1.83-5.49-5.08-6.5-7.72
			c0.41-0.2,0.81-0.61,1.42-0.81c1.02,2.64,2.64,6.1,5.08,8.13c2.44-2.03,4.06-5.49,5.08-8.13c0.61,0.2,1.02,0.61,1.42,0.81
			C155.49,125.63,153.25,128.88,150,130.71z M160.97,127.87c-1.22-1.22-2.24-3.05-3.05-4.88c0.41-0.2,0.81-0.61,1.42-0.81
			c0.61,1.63,1.22,3.05,2.03,4.47C161.38,127.06,161.18,127.46,160.97,127.87z M157.11,121.98c-3.25-1.83-5.28-5.08-6.5-7.72
			l1.42-0.81c1.02,2.64,2.64,6.3,5.08,8.13h0.2c2.44-1.83,4.06-5.49,5.08-8.13l1.42,0.81C162.6,116.9,160.57,120.15,157.11,121.98z
			 M164.43,113.24c-3.25-1.83-5.49-5.08-6.5-7.72l1.42-0.81c1.02,2.64,2.64,6.3,4.88,8.13h0.41c2.23-1.83,4.06-5.49,5.08-8.13
			c0.41,0.41,0.81,0.61,1.42,0.81C169.91,108.16,167.88,111.41,164.43,113.24z M165.24,96.98l1.22-1.02
			c1.22,2.84,2.85,6.3,5.08,8.13l0.2,0.41C168.49,102.67,166.25,99.42,165.24,96.98z M203.03,87.44c1.62-2.03,2.23-5.08,2.44-7.31
			c0.41,0,0.81,0.2,1.22,0.2c-0.41,2.23-1.22,5.08-3.66,7.31c-3.05-0.41-5.69-2.23-7.32-3.86l1.02-0.81
			c1.42,1.63,3.86,3.86,6.1,4.47l0.2,0.2V87.44z M210.75,92.31c-3.05-0.61-5.28-2.44-6.91-3.86c0.41-0.2,0.61-0.61,1.02-1.02
			L210.75,92.31z M194.9,83.17c-2.24-0.41-3.66-1.02-5.28-2.24l0.61-1.02c1.62,1.63,3.25,2.44,4.67,3.05
			c0.81-1.22,1.62-3.05,2.03-5.28l1.22,0.41C197.34,79.92,196.32,81.95,194.9,83.17z M199.78,77.07c1.02-1.22,1.63-3.25,2.03-5.69
			l1.02,1.22c-0.81,1.83-1.83,3.45-3.05,4.67V77.07z M192.46,73.42c0.41-0.2,0.61-0.61,0.81-1.02c1.63,1.83,3.86,4.06,6.3,4.88
			C196.53,76.67,194.09,75.04,192.46,73.42z M187.18,69.96c1.42,1.22,2.85,2.23,4.27,2.64h0.2c1.02-1.42,1.63-3.25,2.03-5.69
			c0.41,0,0.81,0,1.22,0.2c-0.61,2.24-1.83,4.27-3.25,5.69c-1.83-0.2-3.45-1.02-5.08-2.03L187.18,69.96z M182.71,78.09
			c1.62,1.42,3.25,2.44,4.67,3.05l0.41-0.2c1.42-2.03,2.03-5.08,2.24-7.31c0.41,0,0.81,0.2,1.42,0.2c-0.41,2.23-1.42,5.28-3.86,7.52
			c-1.83-0.41-3.45-1.02-5.28-2.23C182.51,78.7,182.71,78.29,182.71,78.09z M179.05,84.79c1.22,1.02,2.44,1.63,3.66,2.03v0.2
			l0.2-0.2c0.81-1.22,1.63-3.05,2.03-5.08c0.2,0,0.61,0.2,1.02,0.2c-0.41,1.42-2.03,5.08-3.25,5.08c-1.42-0.2-2.85-0.81-4.47-1.63
			L179.05,84.79z M181.49,120.76c-2.44-3.25-3.45-7.11-3.86-10.97C179.26,113.24,180.27,116.9,181.49,120.76z M178.85,95.56
			c-1.22-0.2-2.84-0.41-2.84-1.63c0.81,0.61,1.83,1.02,2.64,1.42l0.2-0.2c1.42-2.03,2.03-5.08,2.24-7.31c0.61,0.2,1.02,0.2,1.42,0.2
			C182.1,90.28,181.09,93.33,178.85,95.56z M188.2,120.96c-3.05-5.28-4.67-10.77-5.69-16.66
			C184.74,109.79,186.57,115.27,188.2,120.96z M195.31,120.76c-0.61-0.41-3.66-6.3-4.88-9.35c-1.02-2.84-2.64-8.53-2.85-10.16h0.2
			C190.23,107.75,192.67,114.26,195.31,120.76z M186.98,100.03c-3.25-0.41-5.69-2.44-7.32-3.86l1.02-1.02
			c1.42,1.63,3.66,3.86,6.1,4.67l0.2-0.2c1.62-2.03,2.23-5.08,2.44-7.31l1.22,0.41C190.23,94.75,189.42,97.8,186.98,100.03z
			 M190.84,91.5c-3.05-0.41-5.49-2.23-7.11-3.66l0.81-1.02c1.63,1.63,3.86,3.86,6.3,4.47V91.5l0.2-0.2
			c1.42-2.03,2.03-5.08,2.23-7.31l1.42,0.2c-0.41,2.23-1.42,5.28-3.66,7.31H190.84z M203.64,122.99
			c-4.47-6.91-8.74-17.88-9.14-24.18c1.22,4.47,3.05,8.53,4.27,12.19L203.64,122.99z M198.97,96.17c-3.05-0.61-5.49-2.44-7.11-3.86
			l0.81-1.02c1.63,1.63,3.86,3.86,6.3,4.67l0.2-0.2c1.42-2.03,2.03-5.08,2.23-7.31c0.41,0.2,1.02,0.2,1.42,0.2
			C202.42,90.89,201.4,93.94,198.97,96.17z M215.83,131.12v0.2c-5.28-6.5-9.55-18.69-11.79-27.02v-0.2l0.41,0.81
			C208.11,113.85,211.36,122.59,215.83,131.12z M207.3,100.64c-3.25-0.41-5.69-2.24-7.32-3.86l0.81-1.02
			c1.63,1.83,3.86,3.86,6.3,4.67h0.2c1.42-2.03,2.03-5.08,2.23-7.52l1.42,0.41C210.55,95.36,209.53,98.41,207.3,100.64z
			 M215.02,112.02c0.2,0.41,0.81,1.83,6.7,13.21c3.25,5.89,7.11,11.58,11.58,16.86c0,0,0.2,0.2,0.2,0.41
			c-4.88-5.08-8.13-9.14-11.79-15.44C219.08,122.18,216.85,117.3,215.02,112.02z"/>
		<path class="st0" d="M186.37,185.77c2.44,0,5.49-0.81,5.49-1.42c-1.02-1.02-10.56-5.28-12.6-8.33v-0.61
			c3.45,2.03,4.67,2.84,7.92,2.84c2.24,0,3.66-0.41,4.06-1.22c-1.02-0.61-6.91-3.66-10.57-7.52c-0.2,1.02-0.61,2.03-1.22,3.25
			c-1.02-3.25-0.61-7.72-5.08-12.19c-1.22,1.02-3.25,1.83-5.08,2.03c3.25-8.74,2.84-10.77-4.88-20.72c0.41-4.67,0.2-9.14-0.81-13
			v0.2c-0.61,2.03-1.22,3.66-1.83,5.28c0.81,1.63,1.63,3.25,2.24,4.06l-0.61,0.41l-2.23-3.25c-0.2,0.61-0.61,1.22-0.81,1.83
			c1.22,2.44,6.5,11.58,9.96,15.44l-0.41,0.41c-3.66-4.06-7.92-9.75-10.16-14.43l-1.02,1.63c2.24,3.86,4.27,6.7,5.89,8.53
			l-0.41,0.41c-1.83-2.03-4.27-4.88-6.1-7.92l-1.42,2.03l3.25,4.47l-0.2,0.41c-1.22-1.22-2.24-2.64-3.66-4.27
			c-1.83,2.23-3.86,3.86-6.1,5.28c-2.23-1.42-4.27-3.05-6.09-5.28c-1.42,1.63-2.44,3.05-3.66,4.27l-0.2-0.41l3.25-4.47l-1.42-2.03
			c-1.83,3.05-4.27,5.89-6.09,7.92l-0.41-0.41c1.62-1.83,3.66-4.67,5.89-8.53l-1.02-1.63c-2.24,4.67-6.5,10.36-10.16,14.43
			l-0.41-0.41c3.45-3.86,8.74-13,9.96-15.44c-0.2-0.61-0.61-1.22-0.81-1.83l-2.24,3.25l-0.61-0.41c0.61-0.81,1.42-2.44,2.23-4.06
			c-0.61-1.63-1.22-3.25-1.83-5.28v-0.2c-1.02,3.86-1.22,8.33-0.81,13c-7.72,9.96-8.13,11.99-4.88,20.72
			c-1.83-0.2-3.86-1.02-5.08-2.03c-4.47,4.47-4.06,8.94-5.08,12.19c-0.61-1.22-1.02-2.23-1.22-3.25c-3.66,3.86-9.55,6.91-10.56,7.52
			c0.41,0.81,1.83,1.22,4.06,1.22c3.25,0,4.47-0.81,7.92-2.84v0.61c-2.03,3.05-11.58,7.31-12.6,8.33c0,0.61,3.05,1.42,5.49,1.42
			c4.47,0,4.47-1.02,8.33-4.06v0.81c-2.44,3.25-3.25,3.45-7.31,6.1c0.61,1.02,1.83,1.42,3.05,1.42c1.22,0,3.05-0.81,5.28-2.44
			l0.2,0.81c-2.03,1.83-3.66,3.45-5.28,5.28c1.83,0.61,3.05,0.61,5.08,0.2c1.42-0.2,1.62,0.2,2.44,1.42
			c6.3,8.53,15.24,12.8,24.58,12.8c9.35,0,18.29-4.27,24.58-12.8c0.81-1.22,1.02-1.63,2.44-1.42c2.03,0.41,3.25,0.41,5.08-0.2
			c-1.63-1.83-3.25-3.45-5.28-5.28l0.2-0.81c2.23,1.63,4.06,2.44,5.28,2.44c1.22,0,2.44-0.41,3.05-1.42
			c-4.06-2.64-4.88-2.84-7.31-6.1v-0.81C181.9,184.76,181.9,185.77,186.37,185.77z M170.52,155.5l-0.61,2.23l-17.07,6.1
			L170.52,155.5z M168.9,160.17c-0.61,0.61-0.61,2.03-0.61,2.64l-16.05,3.25L168.9,160.17z M153.25,147.78
			c5.28,0.41,11.18,2.64,15.44,5.89l-1.22,0.81c-4.47-3.25-9.75-5.08-15.24-5.49h-0.41L153.25,147.78z M166.05,155.09l-1.42,0.81
			c-4.06-2.84-9.14-4.27-14.63-4.27c-5.49,0-10.56,1.42-14.63,4.27l-1.42-0.81c4.27-2.84,10.36-4.67,16.05-4.67
			C155.69,150.42,161.78,152.25,166.05,155.09z M146.75,147.78l1.42,1.22h-0.41c-5.49,0.41-10.77,2.24-15.24,5.49l-1.22-0.81
			C135.57,150.42,141.47,148.19,146.75,147.78z M130.09,157.74l-0.61-2.23l17.68,8.33L130.09,157.74z M147.77,166.07l-16.05-3.25
			c0-0.61,0-2.03-0.61-2.64L147.77,166.07z M122.37,178.26c-1.02-4.88,0-9.96,3.05-14.63l23.97,4.47v32.51l-23.97-8.33
			L122.37,178.26z M150,206.5c-8.74,0-17.88-4.27-21.54-9.96l2.03,0.81c4.67,5.08,11.99,7.92,19.5,7.92
			c7.52,0,14.83-2.84,19.51-7.92l2.03-0.81C167.88,202.23,158.74,206.5,150,206.5z M177.63,178.26l-3.05,14.02l-23.97,8.33V168.1
			l23.97-4.47C177.63,168.3,178.65,173.38,177.63,178.26z"/>
		<path class="st0" d="M132.93,118.52c-5.28,0-5.49,7.31-5.49,10.77c0,3.86,1.62,10.57,1.62,10.77c0,0.61-0.61,0.81-2.03,4.27
			c-0.81,7.72-3.05,13.82-6.1,17.88l1.42,0.61c1.42-2.23,1.62-3.25,3.86-7.31l0.2,3.25c0.41-0.2,1.02-0.41,1.62-0.2
			c-0.41-0.41-1.02-2.64-1.02-3.25c0.41-4.67,5.08-11.58,7.52-14.02c-0.2-2.03-0.2-3.66-0.2-5.08c0-3.05,2.03-8.94,2.03-14.22
			C136.39,122.38,136.79,118.52,132.93,118.52z"/>
		<path class="st0" d="M142.42,174.53c-0.23-0.03-0.49-0.08-0.75-0.13c-0.26-0.05-0.53-0.1-0.77-0.16
			c-0.21-0.05-0.46-0.12-0.72-0.19c-0.26-0.07-0.53-0.15-0.77-0.22c-0.24-0.07-0.46-0.14-0.61-0.18c-0.16-0.05-0.25-0.08-0.25-0.08
			l-0.12,1.2l0.07,0.15c0.01,0,0.04,0.01,0.09,0.02c0.05,0.01,0.11,0.02,0.18,0.04c0.07,0.01,0.15,0.03,0.24,0.05
			c0.08,0.02,0.17,0.04,0.26,0.06c0.12,0.03,0.22,0.07,0.31,0.14c0.09,0.06,0.17,0.14,0.23,0.24c0.06,0.1,0.11,0.21,0.14,0.35
			c0.03,0.14,0.05,0.29,0.06,0.47l0.31,8.41l-0.15-0.04c0,0-0.22-0.37-0.6-1.04c-0.38-0.66-0.92-1.61-1.56-2.76
			c-0.65-1.15-1.4-2.49-2.2-3.95c-0.8-1.46-1.65-3.03-2.5-4.62c0,0-0.05-0.01-0.15-0.02c-0.09-0.01-0.23-0.03-0.38-0.06
			c-0.16-0.03-0.34-0.06-0.53-0.1c-0.19-0.04-0.39-0.08-0.58-0.13c-0.19-0.05-0.42-0.11-0.64-0.18c-0.23-0.07-0.46-0.14-0.67-0.2
			c-0.21-0.07-0.39-0.12-0.52-0.17c-0.13-0.04-0.21-0.07-0.21-0.07l-0.1,1.04l0.09,0.19c0.35,0.13,0.63,0.24,0.86,0.37
			c0.23,0.12,0.41,0.25,0.55,0.39c0.14,0.14,0.23,0.3,0.3,0.48c0.06,0.18,0.1,0.39,0.11,0.64l0.18,9.57
			c0.01,0.23-0.01,0.42-0.06,0.58c-0.04,0.15-0.11,0.27-0.21,0.36c-0.1,0.09-0.22,0.14-0.37,0.16c-0.15,0.02-0.33,0.02-0.53-0.01
			l-0.06,1.21c0,0,0.07,0.01,0.2,0.03c0.13,0.02,0.31,0.05,0.51,0.08c0.21,0.04,0.45,0.08,0.69,0.13c0.24,0.05,0.5,0.11,0.73,0.17
			c0.22,0.06,0.48,0.14,0.74,0.22c0.26,0.08,0.53,0.17,0.77,0.24c0.24,0.08,0.46,0.15,0.61,0.2c0.16,0.05,0.25,0.08,0.25,0.08
			l0.14-1.15l-0.07-0.13l-0.99-0.24c-0.12-0.03-0.22-0.08-0.31-0.13c-0.09-0.06-0.16-0.13-0.21-0.21c-0.06-0.09-0.1-0.2-0.13-0.33
			c-0.03-0.13-0.05-0.28-0.06-0.47l-0.31-8.64l0.14,0.04c0,0,0.22,0.38,0.62,1.07c0.39,0.69,0.96,1.68,1.65,2.91
			c0.69,1.23,1.5,2.68,2.39,4.3c0.89,1.61,1.85,3.38,2.83,5.24l1.3,0.06l-0.12-12.73c0-0.23,0.02-0.42,0.07-0.58
			c0.05-0.16,0.13-0.28,0.25-0.37c0.11-0.09,0.25-0.15,0.43-0.18c0.17-0.03,0.38-0.03,0.62-0.01l0.07-1.29c0,0-0.08-0.01-0.22-0.03
			C142.84,174.59,142.65,174.56,142.42,174.53z"/>
		<path class="st0" d="M177.84,51.68c0,2.64,3.66,3.25,5.69,0.81c-0.2-0.2-0.61-0.41-1.02-0.41c0,0.81-0.81,1.42-1.83,1.42
			c-0.81,0-1.63-0.61-1.63-1.63v-0.2H177.84z"/>
		<path class="st0" d="M159.75,37.25c0-1.22-1.02-2.23-2.24-2.23c-1.22,0-2.03,1.02-2.03,2.23c0,1.22,0.81,2.24,2.03,2.24
			C158.74,39.49,159.75,38.47,159.75,37.25z"/>
		<path class="st0" d="M237.57,137.62c-9.14-9.55-14.63-21.94-24.99-54.25c-1.42-4.47-5.08-19.3-17.88-21.54l-0.81,2.64
			c12.6,1.22,17.27,18.29,20.32,30.68c4.27,17.27,17.07,45.72,37.79,55.67c0.41,0.2,0.41,0.41,2.84,0.41
			C247.73,146.76,246.92,147.37,237.57,137.62z"/>
		<path class="st0" d="M119.32,53.5c-1.02,0-1.83-0.61-1.83-1.42c-0.41,0-0.81,0.2-1.02,0.41c2.03,2.44,5.69,1.83,5.69-0.81h-1.22
			v0.2C120.95,52.9,120.13,53.5,119.32,53.5z"/>
		<path class="st0" d="M137.2,44.16l2.03-0.41c2.64-0.61,6.5-1.02,10.77-1.02c4.27,0,8.13,0.41,10.77,1.02l2.03,0.41
			c-0.81-0.61-1.42-1.42-1.42-2.24c-4.27-0.81-8.53-1.42-11.38-1.42c-2.84,0-7.11,0.61-11.38,1.42
			C138.62,42.74,138.01,43.55,137.2,44.16z"/>
		<path class="st0" d="M136.59,32.58c-0.81,0-2.84-0.2-4.67-0.2c-3.05,0-7.52,2.44-7.52,4.06c0,0.41,3.66,4.27,4.67,6.1l3.86-0.41
			c-1.22-2.24-2.44-3.86-4.06-5.49c1.42-0.81,2.64-1.02,4.88-1.02c2.03,0,3.86,0.41,5.08,1.02c0.41-2.64,0.81-4.06,1.42-6.1
			c1.22,0,3.86,0.61,5.28,1.22c1.02-2.23,3.25-5.08,4.47-5.89c1.22,0.81,3.45,3.66,4.47,5.89c1.42-0.61,4.06-1.22,5.28-1.22
			c0.61,2.03,1.02,3.45,1.42,6.1c1.22-0.61,3.05-1.02,5.08-1.02c2.24,0,3.45,0.2,4.88,1.02c-1.62,1.63-2.84,3.25-4.06,5.49
			l3.86,0.41c1.02-1.83,4.67-5.69,4.67-6.1c0-1.63-4.47-4.06-7.52-4.06c-1.83,0-3.86,0.2-4.67,0.2c-0.41,0-1.42-5.49-2.44-5.49
			c-0.81,0-4.67,1.22-5.08,1.02c-0.61-0.2-2.03-3.86-5.89-5.69c-3.86,1.83-5.28,5.49-5.89,5.69c-0.41,0.2-4.27-1.02-5.08-1.02
			C138.01,27.09,137,32.58,136.59,32.58z"/>
		<path class="st0" d="M143.7,18.76h4.06c0,1.22-0.2,2.23-0.61,3.86c1.02-0.81,1.83-1.42,2.84-2.03c1.02,0.61,1.83,1.22,2.85,2.03
			c-0.41-1.63-0.61-2.64-0.61-3.86h4.06v-5.08h-4.06V8.4h-4.47v5.28h-4.06V18.76z"/>
		<path class="st0" d="M152.64,35.02c0-1.63-1.02-2.84-2.64-3.05c-1.62,0.2-2.64,1.42-2.64,3.05c0,1.63,1.02,2.84,2.64,3.05
			C151.63,37.86,152.64,36.64,152.64,35.02z"/>
		<path class="st0" d="M144.51,37.25c0-1.22-0.81-2.23-2.03-2.23s-2.23,1.02-2.23,2.23c0,1.22,1.02,2.24,2.23,2.24
			S144.51,38.47,144.51,37.25z"/>
	</g>
	<g>
		<path class="st0" d="M103.55,274.84c0.79,0,3.58-0.1,3.58-0.1c4.04,0,5.95,1.87,5.95,4.67c0,2.96-2.99,5.68-6.24,5.68h-2.27
			l-0.03,2.3c0,2.2,0.13,2.5,1.18,2.5c0.53,0,1.41-0.07,1.41-0.07l0.07,0.13l-0.26,1.31c0,0-1.77-0.07-2.69-0.07
			c-1.45,0-4.11,0.13-4.14,0.2l0.2-1.35c1.51-0.26,1.91-0.66,1.91-2.1l0.03-10.45c0-1.08-0.23-1.38-0.95-1.38
			c-0.36,0-0.92,0.03-0.92,0.03l-0.1-0.13l0.2-1.25C100.63,274.78,102.5,274.84,103.55,274.84z M110.42,279.87
			c0-2.46-1.48-3.58-4.8-3.58c-0.59,0-0.66,0-0.69,0.39c-0.13,2.14-0.26,4.53-0.3,6.64l2.73,0.36
			C109.4,283.35,110.42,282.07,110.42,279.87z"/>
		<path class="st0" d="M126.19,287.89c0,1.81,0.2,2.04,1.94,2.07l0.07,0.1l-0.26,1.25c0-0.03-2.3-0.07-3.52-0.07
			c-1.35,0-2.79,0.1-2.79,0.1l0.23-1.35c1.61-0.2,2-0.56,2-2.04l0.03-10.48c0-1.08-0.23-1.35-0.95-1.35c-0.36,0-0.92,0.03-0.92,0.03
			l-0.1-0.13l0.2-1.25c0,0,2.07,0.07,3.09,0.07c0.99,0,3.52-0.1,3.52-0.1c3.55,0,5.69,1.54,5.69,4.14c0,2.04-1.41,3.81-3.88,4.9
			l2.79,4.21c1.05,1.58,1.87,2.17,3.25,2.17l0.13,0.16l-0.16,1.02l-2.53,0.26c-0.95,0-2.04-0.89-2.86-2.4l-2.76-4.83h-2.14
			L126.19,287.89z M131.75,279.35c0-2.14-1.54-3.19-4.7-3.19c-0.36,0-0.46,0.13-0.46,0.59c-0.16,2.5-0.26,4.21-0.26,5.91l2.66,0.26
			C129.15,282.86,131.75,282.14,131.75,279.35z"/>
		<path class="st0" d="M151.49,289.79c4.04,0,4.53-0.33,4.96-3.09l1.45-0.13l0.13,0.16c0,0-0.49,2.17-0.72,4.47l-0.2,0.16
			c0,0-5.45-0.16-8.21-0.16c-2.14,0-3.98,0.26-3.98,0.26l0.16-1.38c1.61-0.2,2.07-0.69,2.07-2.17l0.03-10.42
			c0-1.12-0.2-1.38-0.99-1.38c-0.3,0-0.89,0.03-0.89,0.03l-0.07-0.13l0.2-1.25c0,0,2.33,0.07,4.04,0.07c4.17,0,6.38-0.1,8.12-0.3
			l0.1,0.16c0,0-0.46,2.04-0.62,4.4l-1.58,0.13c0,0,0.07-0.72,0.07-1.08c0-1.61-0.33-1.77-3.94-1.77c-1.64,0-1.74,0.07-1.77,0.95
			l-0.2,4.67l2.69,0.03c0.95,0,3.25-0.26,3.25-0.26l0.13,0.16l-0.39,1.71c0,0-2.27-0.07-3.68-0.07c-0.82,0-1.61,0.1-2.07,0.16
			c-0.1,2.5-0.1,3.68-0.1,4.5C149.49,289.63,149.66,289.79,151.49,289.79z"/>
		<path class="st0" d="M167.66,290.62l-0.16-0.3c0,0,0.36-2.07,0.36-4.44l1.48-0.13c0,3.42,0.62,4.17,3.35,4.17
			c2.1,0,3.52-0.99,3.52-2.53c0-1.61-2-2.46-4.04-3.45c-2.17-1.05-4.37-2.23-4.37-4.53c0-2.79,2.76-4.86,6.44-4.86
			c2.46,0,4.24,0.62,4.24,0.62l0.13,0.23c0,0-0.46,2-0.62,4.34l-1.28,0.13l-0.2-0.13c0,0,0.07-0.49,0.07-1.18
			c0-1.71-0.76-2.3-3.06-2.3c-1.84,0-3.19,0.95-3.19,2.27c0,1.45,1.74,2.33,3.65,3.25c2.3,1.08,4.93,2.27,4.93,4.7
			c0,2.96-2.79,5.03-6.87,5.03C169.44,291.5,167.66,290.62,167.66,290.62z"/>
		<path class="st0" d="M188.66,290.62l-0.16-0.3c0,0,0.36-2.07,0.36-4.44l1.48-0.13c0,3.42,0.62,4.17,3.35,4.17
			c2.1,0,3.52-0.99,3.52-2.53c0-1.61-2-2.46-4.04-3.45c-2.17-1.05-4.37-2.23-4.37-4.53c0-2.79,2.76-4.86,6.44-4.86
			c2.46,0,4.24,0.62,4.24,0.62l0.13,0.23c0,0-0.46,2-0.62,4.34l-1.28,0.13l-0.2-0.13c0,0,0.07-0.49,0.07-1.18
			c0-1.71-0.76-2.3-3.06-2.3c-1.84,0-3.19,0.95-3.19,2.27c0,1.45,1.74,2.33,3.65,3.25c2.3,1.08,4.93,2.27,4.93,4.7
			c0,2.96-2.79,5.03-6.87,5.03C190.43,291.5,188.66,290.62,188.66,290.62z"/>
	</g>
	<g>
		<path class="st1" d="M56.33,236.23c0-1.31-0.44-1.81-1.48-1.81h-1.59l-0.11-0.27l0.33-2.46c0,0,3.51,0.16,5.31,0.16
			c2.08,0,5.09-0.27,5.09-0.27l-0.22,2.63c-2.08,0.27-2.9,0.99-2.96,2.74l-0.6,22.95l-3.67,0.55
			c-7.56-11.12-14.29-19.99-14.29-19.99h-0.38l-0.05,14.29c0,1.48,0.38,1.92,1.48,1.92l2.03-0.05l0.27,0.16l-0.49,2.57
			c0,0-3.51-0.16-5.48-0.16c-2.19,0-5.09,0.33-5.09,0.33l0.33-2.63c1.81-0.22,2.63-0.93,2.68-2.68l0.6-17.31
			c0-1.81-0.82-2.36-3.72-2.68l-0.33-0.33l0.38-2.25c0,0,2.85,0.22,4.77,0.22c1.81,0,3.94-0.16,3.94-0.16
			c6.35,9.53,12.98,18.35,12.98,18.35h0.38L56.33,236.23z"/>
		<path class="st1" d="M80.8,256.16c6.02,0,6.85-0.55,7.56-4.98l3.18-0.22l0.33,0.33c0,0-0.82,3.78-1.2,7.78l-0.44,0.38
			c0,0-8.71-0.27-13.91-0.27c-3.83,0-7.28,0.44-7.28,0.44l0.27-2.68c2.57-0.33,3.34-1.2,3.34-3.67l0.05-16.59
			c0-1.86-0.33-2.3-1.53-2.3c-0.49,0-1.42,0.05-1.42,0.05l-0.22-0.27l0.38-2.41c0,0,4.44,0.11,7.61,0.11
			c6.63,0,10.84-0.16,13.64-0.49l0.27,0.33c0,0-0.77,3.67-1.04,7.67l-3.51,0.22c0,0,0.11-1.15,0.11-1.75c0-2.46-0.6-2.79-6.02-2.79
			c-2.41,0-2.63,0.16-2.63,1.48l-0.33,7.06l4.27,0.06c1.59,0,5.37-0.44,5.37-0.44l0.27,0.38l-0.66,3.34c0,0-3.67-0.11-5.97-0.11
			c-1.37,0-2.63,0.16-3.45,0.27c-0.11,3.51-0.11,5.31-0.11,6.52C77.74,255.89,78.01,256.16,80.8,256.16z"/>
		<path class="st1" d="M116.51,243.89h-0.33l-5.26,15.06l-5.86,0.88c0,0-3.78-14.13-6.74-22.89c-0.55-1.7-1.59-2.46-3.45-2.57
			l-0.16-0.22l0.33-2.41c0,0,3.56,0.11,5.37,0.11c3.45,0,7.12-0.38,7.12-0.38l0.16,0.33l-0.22,2.35c-2.96,0.27-3.51,0.49-3.51,1.64
			c0,1.64,4.49,18.13,4.49,18.13h0.44c1.42-3.45,3.78-10.79,5.42-15.61c-0.16-0.66-0.33-1.37-0.49-1.92
			c-0.44-1.48-1.42-1.97-3.56-2.03l-0.16-0.22l0.33-2.41c0,0,3.94,0.11,5.86,0.11c3.12,0,7.07-0.38,7.07-0.38l0.22,0.33l-0.22,2.35
			c-2.96,0.27-3.56,0.49-3.56,1.64c0,1.53,4.49,18.13,4.49,18.13h0.55c1.48-3.61,6.02-17.03,6.02-18.35c0-0.93-0.66-1.26-2.52-1.26
			h-1.86l-0.16-0.27l0.33-2.46c0,0,3.61,0.27,6.41,0.27c2.19,0,4.98-0.11,4.98-0.11l-0.33,2.63c-1.48,0.16-1.92,0.49-2.52,2.19
			l-8.38,22.4l-5.86,0.88C120.73,258.35,118.81,251.34,116.51,243.89z"/>
		<path class="st1" d="M149.75,253.32c0,2.9,0.33,3.29,3.23,3.34l0.16,0.22l-0.49,2.46c0-0.05-4.6-0.11-6.3-0.11
			c-2.52,0-5.31,0.22-5.31,0.22l0.38-2.68c2.57-0.33,3.23-0.99,3.23-3.45l0.05-16.81c0-1.7-0.38-2.14-1.48-2.14
			c-0.66,0-1.59,0.05-1.59,0.05l-0.22-0.27l0.38-2.41c0,0,3.72,0.11,5.48,0.11c1.75,0,6.41-0.22,6.41-0.22
			c6.52,0,10.24,2.63,10.24,7.17c0,3.4-2.25,6.3-6.24,8.16l4.22,6.35c1.7,2.57,3.12,3.67,5.2,3.67l0.27,0.38l-0.33,2.03l-4.87,0.44
			c-1.81,0-3.51-1.37-4.87-3.94l-4.16-7.67h-3.29L149.75,253.32z M158.3,239.62c0-3.29-2.3-4.87-7.18-4.87
			c-0.6,0-0.77,0.22-0.77,0.99c-0.22,3.61-0.38,6.3-0.38,8.98l4.16,0.44C154.85,244.88,158.3,243.73,158.3,239.62z"/>
		<path class="st1" d="M170.78,246.3c0-8.87,6.08-14.95,14.79-14.95c8,0,12.98,5.09,12.98,13.25c0,8.93-6.19,15.06-14.95,15.06
			C175.77,259.67,170.78,254.46,170.78,246.3z M192.47,246.74c0-7.45-3.18-11.67-8.21-11.67c-4.6,0-7.45,3.56-7.45,9.58
			c0,7.45,3.07,11.72,8,11.72C189.46,256.38,192.47,252.77,192.47,246.74z"/>
		<path class="st1" d="M210.6,239.4h-0.33c0,0-1.1,14.79-1.1,15.83c0,0.99,0.44,1.37,1.42,1.37h1.64l0.16,0.16l-0.44,2.57
			c0,0-3.56-0.16-5.09-0.16c-1.75,0-4.27,0.33-4.27,0.33l0.22-2.63c1.81-0.22,2.57-0.99,2.79-3.12c0.27-1.97,1.86-16.21,1.86-17.42
			c0-1.48-0.82-1.97-3.56-2.14l-0.22-0.33l0.38-2.25c0,0,3.89,0.22,5.48,0.22c1.7,0,4.38-0.16,4.38-0.16
			c3.12,10.19,6.19,18.35,6.19,18.35h0.33c0,0,3.07-8.22,6.46-18.24c0.93-0.06,3.23,0.05,4.76,0.05c1.59-0.05,4.66-0.27,4.66-0.27
			l0.16,0.16l-0.33,2.36c-2.52,0.22-3.34,0.77-3.34,2.3c0,1.75,0.66,11.06,1.15,16.27c0.33,3.12,0.71,3.94,2.14,3.94
			c0.6,0,1.31-0.06,1.31-0.06l0.11,0.16l-0.38,2.57c0,0-2.68-0.11-4.49-0.11c-1.59,0-5.81,0.27-6.02,0.33l0.33-2.63
			c1.81-0.22,2.52-0.82,2.52-2.14c0-1.64-1.1-15.34-1.1-15.34h-0.33c-1.92,4.82-4.71,12.27-7.45,20.1l-2.52,0.38
			C215.25,251.73,212.57,244.28,210.6,239.4z"/>
		<path class="st1" d="M254.96,256.16c6.02,0,6.85-0.55,7.56-4.98l3.18-0.22l0.33,0.33c0,0-0.82,3.78-1.2,7.78l-0.44,0.38
			c0,0-8.71-0.27-13.91-0.27c-3.83,0-7.28,0.44-7.28,0.44l0.27-2.68c2.57-0.33,3.34-1.2,3.34-3.67l0.06-16.59
			c0-1.86-0.33-2.3-1.53-2.3c-0.49,0-1.42,0.05-1.42,0.05l-0.22-0.27l0.38-2.41c0,0,4.44,0.11,7.61,0.11
			c6.63,0,10.84-0.16,13.64-0.49l0.27,0.33c0,0-0.77,3.67-1.04,7.67l-3.51,0.22c0,0,0.11-1.15,0.11-1.75c0-2.46-0.6-2.79-6.02-2.79
			c-2.41,0-2.63,0.16-2.63,1.48l-0.33,7.06l4.27,0.06c1.59,0,5.37-0.44,5.37-0.44l0.27,0.38l-0.66,3.34c0,0-3.67-0.11-5.97-0.11
			c-1.37,0-2.63,0.16-3.45,0.27c-0.11,3.51-0.11,5.31-0.11,6.52C251.89,255.89,252.16,256.16,254.96,256.16z"/>
	</g>
</g>
</svg>
